<svg width="176" height="56" viewBox="0 0 176 56" fill="none" xmlns="http://www.w3.org/2000/svg">
<circle cx="24" cy="28.0001" r="20.4" fill="white"/>
<path fill-rule="evenodd" clip-rule="evenodd" d="M24 4C37.2459 4 48 14.7541 48 28C48 41.246 37.2459 52 24 52C10.754 52 0 41.246 0 28C0 14.7541 10.754 4 24 4ZM25.7039 46.6143C25.7039 46.6143 23.7957 42.7375 29.2734 40.5098C41.7104 35.4519 36.9078 21.46 36.9279 22.7014C37.0597 30.9001 27.4231 31.2391 30.2522 30.113C36.2988 27.706 37.9164 9.23186 19.0726 9.38672C18.321 9.39295 25.1586 12.3672 23.0378 19.1915C21.8879 22.8909 17.803 24.6812 15.7482 21.6931C14.7322 20.2156 15.872 17.0401 15.7482 17.0357C13.427 16.9535 3.71762 30.5845 17.1229 39.7723C19.0991 41.1268 13.7771 34.9599 24.5077 27.9875C25.4145 27.3979 13.5174 37.2952 25.7039 46.6143Z" fill="url(#paint0_linear_79_11288)"/>
<path d="M70.1064 33.5342H61.8447L60.1162 38.5H56.2637L64.3203 17.1719H67.6455L75.7168 38.5H71.8496L70.1064 33.5342ZM62.8848 30.5459H69.0664L65.9756 21.6982L62.8848 30.5459ZM90.9805 30.7363C90.9805 33.1875 90.4238 35.1455 89.3105 36.6104C88.1973 38.0654 86.7031 38.793 84.8281 38.793C83.0898 38.793 81.6982 38.2217 80.6533 37.0791V44.5938H77.0938V22.6504H80.375L80.5215 24.2617C81.5664 22.9922 82.9873 22.3574 84.7842 22.3574C86.7178 22.3574 88.2314 23.0801 89.3252 24.5254C90.4287 25.9609 90.9805 27.958 90.9805 30.5166V30.7363ZM87.4355 30.4287C87.4355 28.8467 87.1182 27.5918 86.4834 26.6641C85.8584 25.7363 84.96 25.2725 83.7881 25.2725C82.333 25.2725 81.2881 25.873 80.6533 27.0742V34.1055C81.2979 35.3359 82.3525 35.9512 83.8174 35.9512C84.9502 35.9512 85.834 35.4971 86.4688 34.5889C87.1133 33.6709 87.4355 32.2842 87.4355 30.4287ZM107.885 30.7363C107.885 33.1875 107.328 35.1455 106.215 36.6104C105.102 38.0654 103.607 38.793 101.732 38.793C99.9941 38.793 98.6025 38.2217 97.5576 37.0791V44.5938H93.998V22.6504H97.2793L97.4258 24.2617C98.4707 22.9922 99.8916 22.3574 101.688 22.3574C103.622 22.3574 105.136 23.0801 106.229 24.5254C107.333 25.9609 107.885 27.958 107.885 30.5166V30.7363ZM104.34 30.4287C104.34 28.8467 104.022 27.5918 103.388 26.6641C102.763 25.7363 101.864 25.2725 100.692 25.2725C99.2373 25.2725 98.1924 25.873 97.5576 27.0742V34.1055C98.2021 35.3359 99.2568 35.9512 100.722 35.9512C101.854 35.9512 102.738 35.4971 103.373 34.5889C104.018 33.6709 104.34 32.2842 104.34 30.4287ZM122.401 33.0068C122.401 32.0693 122.069 31.3467 121.405 30.8389C120.751 30.3311 119.564 29.8184 117.846 29.3008C116.127 28.7832 114.76 28.207 113.744 27.5723C111.801 26.3516 110.829 24.7598 110.829 22.7969C110.829 21.0781 111.527 19.6621 112.924 18.5488C114.33 17.4355 116.151 16.8789 118.388 16.8789C119.872 16.8789 121.195 17.1523 122.357 17.6992C123.52 18.2461 124.433 19.0273 125.097 20.043C125.761 21.0488 126.093 22.167 126.093 23.3975H122.401C122.401 22.2842 122.05 21.415 121.347 20.79C120.653 20.1553 119.657 19.8379 118.358 19.8379C117.147 19.8379 116.205 20.0967 115.531 20.6143C114.867 21.1318 114.535 21.8545 114.535 22.7822C114.535 23.5635 114.896 24.2178 115.619 24.7451C116.342 25.2627 117.533 25.7705 119.193 26.2686C120.854 26.7568 122.187 27.3184 123.192 27.9531C124.198 28.5781 124.936 29.3008 125.404 30.1211C125.873 30.9316 126.107 31.8838 126.107 32.9775C126.107 34.7549 125.424 36.1709 124.057 37.2256C122.699 38.2705 120.854 38.793 118.52 38.793C116.977 38.793 115.556 38.5098 114.257 37.9434C112.968 37.3672 111.962 36.5762 111.239 35.5703C110.526 34.5645 110.17 33.3926 110.17 32.0547H113.876C113.876 33.2656 114.276 34.2031 115.077 34.8672C115.878 35.5312 117.025 35.8633 118.52 35.8633C119.809 35.8633 120.775 35.6045 121.42 35.0869C122.074 34.5596 122.401 33.8662 122.401 33.0068ZM135.526 35.9512C136.415 35.9512 137.152 35.6924 137.738 35.1748C138.324 34.6572 138.637 34.0176 138.676 33.2559H142.03C141.991 34.2422 141.684 35.165 141.107 36.0244C140.531 36.874 139.75 37.5479 138.764 38.0459C137.777 38.5439 136.713 38.793 135.57 38.793C133.354 38.793 131.596 38.0752 130.297 36.6396C128.998 35.2041 128.349 33.2217 128.349 30.6924V30.3262C128.349 27.9141 128.993 25.9854 130.282 24.54C131.571 23.085 133.329 22.3574 135.556 22.3574C137.44 22.3574 138.974 22.9092 140.155 24.0127C141.347 25.1064 141.972 26.5469 142.03 28.334H138.676C138.637 27.4258 138.324 26.6787 137.738 26.0928C137.162 25.5068 136.425 25.2139 135.526 25.2139C134.374 25.2139 133.485 25.6338 132.86 26.4736C132.235 27.3037 131.918 28.5684 131.908 30.2676V30.8389C131.908 32.5576 132.216 33.8418 132.831 34.6914C133.456 35.5312 134.354 35.9512 135.526 35.9512ZM154.188 38.5C154.032 38.1973 153.896 37.7041 153.778 37.0205C152.646 38.2021 151.259 38.793 149.618 38.793C148.026 38.793 146.728 38.3389 145.722 37.4307C144.716 36.5225 144.213 35.3994 144.213 34.0615C144.213 32.3721 144.838 31.0781 146.088 30.1797C147.348 29.2715 149.145 28.8174 151.479 28.8174H153.661V27.7773C153.661 26.957 153.432 26.3027 152.973 25.8145C152.514 25.3164 151.815 25.0674 150.878 25.0674C150.067 25.0674 149.403 25.2725 148.886 25.6826C148.368 26.083 148.109 26.5957 148.109 27.2207H144.55C144.55 26.3516 144.838 25.541 145.414 24.7891C145.99 24.0273 146.771 23.4316 147.758 23.002C148.754 22.5723 149.862 22.3574 151.083 22.3574C152.938 22.3574 154.418 22.8262 155.521 23.7637C156.625 24.6914 157.191 26 157.221 27.6895V34.8379C157.221 36.2637 157.421 37.4014 157.821 38.251V38.5H154.188ZM150.277 35.9365C150.98 35.9365 151.64 35.7656 152.255 35.4238C152.88 35.082 153.349 34.623 153.661 34.0469V31.0586H151.742C150.424 31.0586 149.433 31.2881 148.769 31.7471C148.104 32.2061 147.772 32.8555 147.772 33.6953C147.772 34.3789 147.997 34.9258 148.446 35.3359C148.905 35.7363 149.516 35.9365 150.277 35.9365ZM164.252 22.6504L164.354 24.4814C165.526 23.0654 167.064 22.3574 168.969 22.3574C172.27 22.3574 173.949 24.2471 174.008 28.0264V38.5H170.448V28.2314C170.448 27.2256 170.229 26.4834 169.789 26.0049C169.359 25.5166 168.651 25.2725 167.665 25.2725C166.229 25.2725 165.16 25.9219 164.457 27.2207V38.5H160.897V22.6504H164.252Z" fill="#0066B0"/>
<defs>
<linearGradient id="paint0_linear_79_11288" x1="48" y1="4" x2="5.72205e-06" y2="52" gradientUnits="userSpaceOnUse">
<stop stop-color="#0066B0"/>
<stop offset="1" stop-color="#2ABDEA"/>
</linearGradient>
</defs>
</svg>
